<?xml version="1.0"?><svg version="1.2" baseProfile="tiny-ps" viewBox="0 0 300 300" xmlns="http://www.w3.org/2000/svg" xmlns:xlink="http://www.w3.org/1999/xlink"><title>HeyFlutter</title><g><g fill="#00e5f5" transform="matrix(.1 0 0 -.1 0 300)"><path d="M0 1500V0h3000v3000H0V1500z"/></g><g fill="#00c1f3" transform="matrix(.1 0 0 -.1 0 300)"><path d="M0 1500V0h3000v3000H0V1500zm2135 853-7-103h-56c-55 0-284 20-290 25-7 6 23 105 49 160l28 60 45 51c49 56 127 111 191 136l40 16 3-122c2-66 0-167-3-223zm-977-232c-2-121-6-222-9-226l-7-6-166 18-166 18v56l32 77 32 76 70 71 71 72 65 31c36 17 69 31 73 31l8 1-3-219zm975-806-8-60-120-11c-66-6-121-10-123-9-1 1 16 15 39 30 22 16 60 51 84 78l44 48 35 70c20 39 39 87 43 107l8 37 3-115c1-63-1-142-5-175zm-805 189 22-6v-187l-10-6c-5-3-48-9-95-12l-85-6v223h73c39 0 82-3 95-6zm-173-571-7-63H888l60 44 60 45 41 53c44 59 87 145 98 198l8 35 3-125c2-69 0-153-3-187z"/></g><g fill="#009ff2" transform="matrix(.1 0 0 -.1 0 300)"><path d="M0 1500V0h3000v3000H0V1500zm2140 861c0-186-3-365-6-399l-7-60-71 4c-39 2-119 7-178 10l-108 6v329l16 67c27 118 93 224 183 293 41 31 146 88 164 89h7v-339zm-980-408v-388l-9-13-8-13-169 11c-93 6-170 13-172 15s-6 67-9 144l-6 140 12 76 13 76 23 52c29 67 88 144 145 192 39 33 152 95 173 95h7v-387zm978-620c-2-133-6-244-8-247-3-2-70-9-150-15s-160-14-177-17l-33-5v146l73 34 72 34 63 60 63 61 38 77 39 77 8 44 8 43 4-25c2-14 2-134 0-267zm-572 165 7-8-9-97-9-98-197-3-198-2v79c0 43-3 93-6 111l-7 32 206-4 205-3 8-7zm-411-703c-3-33-9-66-13-72l-7-10-170-4-170-4-3 65-3 65 73 34 73 34 67 67 68 68 34 72 35 73 8 46 8 46 3-210c2-116 0-237-3-270z"/></g><g fill="#007ef0" transform="matrix(.1 0 0 -.1 0 300)"><path d="M0 1500V0h3000v3000H0V1500zm2140 421v-778l-10-54c-6-30-23-81-39-115l-29-61-98-7c-55-4-120-9-146-13l-48-6v313l67 30c130 59 227 169 272 309 6 19 11 35 11 36s-58 5-128 8c-71 4-150 10-175 13l-47 7v662l15 64 16 64 32 60 32 60 58 58 58 58 71 36c39 19 75 35 79 35h9v-779zm-980 4v-415h244c133 0 271-3 305-6l61-7v-36c0-20-3-66-7-103l-6-68h-597V779l-15-67c-9-37-26-85-38-107l-22-39-40-8-40-9-105 3-105 3-3 145-3 145 50 18 49 17 61 46 60 45 34 47c40 55 73 116 82 153l7 26-36 7c-19 4-92 11-161 16-70 5-130 12-133 15-4 4-8 154-10 334l-3 327 15 68 16 69 33 61 32 61 60 60 60 60 65 32c36 18 71 33 78 33h12v-415z"/></g><g fill="#00455b" transform="matrix(.1 0 0 -.1 0 300)"><path d="M0 1500V0h3000v3000H0V1500zm2140 416v-783l-10-54-10-54-36-74-37-74-61-62-62-62-64-31c-35-18-69-32-77-32h-13v600h-610V765l-15-63c-17-73-43-127-93-196l-36-49-59-43c-54-40-137-84-158-84h-9v1575l15 64 16 64 32 61 32 61 60 60 60 60 66 33c37 17 72 32 78 32h11v-821l13-4c6-2 144-6 305-7l292-3v767l16 62c9 33 30 88 47 120l32 59 58 58 58 58 71 36c39 19 75 35 79 35h9v-784z"/></g><g fill="#000101" transform="matrix(.1 0 0 -.1 0 300)"><path d="M0 1500V0h3000v3000H0V1500zm2150 431v-769l-14-74c-23-118-72-208-159-291l-50-47-70-35c-38-19-76-35-83-35h-14v597l-197 6c-108 4-240 7-293 7h-98l-5-282-5-283-16-48c-8-26-29-74-46-106l-32-59-60-60-60-60-62-30c-33-17-71-34-84-37l-23-7 4 814 3 813 17 48c9 26 30 74 47 106l31 58 47 47c71 73 138 116 220 140l22 7v-831h273c149 0 282-3 295-6l22-6v691l11 78 10 78 39 80 39 80 58 57 58 58 65 35 65 35h45v-769z"/></g></g></svg>